<?xml version="1.0" encoding="UTF-8" standalone="no"?>
<!DOCTYPE svg PUBLIC "-//W3C//DTD SVG 1.1//EN"
 "http://www.w3.org/Graphics/SVG/1.1/DTD/svg11.dtd">
<!-- Generated by graphviz version 2.26.3 (20100126.1600)
 -->
<!-- Title: G Pages: 1 -->
<svg width="557pt" height="380pt"
 viewBox="0.00 0.00 557.00 380.00" xmlns="http://www.w3.org/2000/svg" xmlns:xlink="http://www.w3.org/1999/xlink">
<g id="graph1" class="graph" transform="scale(1 1) rotate(0) translate(4 376)">
<title>G</title>
<polygon fill="white" stroke="white" points="-4,5 -4,-376 554,-376 554,5 -4,5"/>
<g id="graph2" class="cluster"><title>cluster_Global</title>
<polyline fill="none" stroke="gray" points="107,-44 529,-44 "/>
<path fill="none" stroke="gray" d="M529,-44C535,-44 541,-50 541,-56"/>
<polyline fill="none" stroke="gray" points="541,-56 541,-352 "/>
<path fill="none" stroke="gray" d="M541,-352C541,-358 535,-364 529,-364"/>
<polyline fill="none" stroke="gray" points="529,-364 107,-364 "/>
<path fill="none" stroke="gray" d="M107,-364C101,-364 95,-358 95,-352"/>
<polyline fill="none" stroke="gray" points="95,-352 95,-56 "/>
<path fill="none" stroke="gray" d="M95,-56C95,-50 101,-44 107,-44"/>
<text text-anchor="middle" x="318" y="-350.1" font-family="Times Roman,serif" font-size="11.00" fill="gray">\</text>
</g>
<g id="graph3" class="cluster"><title>cluster_\debugChannel</title>
<polyline fill="none" stroke="gray" points="115,-98 521,-98 "/>
<path fill="none" stroke="gray" d="M521,-98C527,-98 533,-104 533,-110"/>
<polyline fill="none" stroke="gray" points="533,-110 533,-322 "/>
<path fill="none" stroke="gray" d="M533,-322C533,-328 527,-334 521,-334"/>
<polyline fill="none" stroke="gray" points="521,-334 115,-334 "/>
<path fill="none" stroke="gray" d="M115,-334C109,-334 103,-328 103,-322"/>
<polyline fill="none" stroke="gray" points="103,-322 103,-110 "/>
<path fill="none" stroke="gray" d="M103,-110C103,-104 109,-98 115,-98"/>
<text text-anchor="middle" x="318" y="-320.1" font-family="Times Roman,serif" font-size="11.00" fill="gray">debugChannel</text>
</g>
<!-- \\debugChannel\\DebugChannel -->
<g id="node3" class="node"><title>\\debugChannel\\DebugChannel</title>
<polygon fill="none" stroke="black" points="206,-304 112,-304 112,-268 206,-268 206,-304"/>
<text text-anchor="middle" x="159" y="-283.1" font-family="Times Roman,serif" font-size="11.00">DebugChannel</text>
</g>
<!-- \\debugChannel\\D -->
<g id="node4" class="node"><title>\\debugChannel\\D</title>
<polygon fill="none" stroke="black" points="485,-304 431,-304 431,-268 485,-268 485,-304"/>
<text text-anchor="middle" x="458" y="-283.1" font-family="Times Roman,serif" font-size="11.00">D</text>
</g>
<!-- \\debugChannel\\D&#45;&gt;\\debugChannel\\DebugChannel -->
<g id="edge4" class="edge"><title>\\debugChannel\\D&#45;&gt;\\debugChannel\\DebugChannel</title>
<path fill="none" stroke="black" d="M430.938,-286C382.77,-286 281.179,-286 216.719,-286"/>
<polygon fill="none" stroke="black" points="216.707,-282.5 206.707,-286 216.707,-289.5 216.707,-282.5"/>
</g>
<!-- \\debugChannel\\Ref -->
<g id="node5" class="node"><title>\\debugChannel\\Ref</title>
<polygon fill="none" stroke="black" points="485,-250 431,-250 431,-214 485,-214 485,-250"/>
<text text-anchor="middle" x="458" y="-229.1" font-family="Times Roman,serif" font-size="11.00">Ref</text>
</g>
<!-- \\debugChannel\\RFormatter -->
<g id="node6" class="node"><title>\\debugChannel\\RFormatter</title>
<polygon fill="none" stroke="black" points="199,-196 119,-196 119,-160 199,-160 199,-196"/>
<text text-anchor="start" x="129" y="-183.433" font-family="Times Roman,serif" font-size="11.00">«abstract»</text>
<text text-anchor="start" x="127" y="-170.233" font-family="Times Roman,serif" font-size="11.00">RFormatter</text>
</g>
<!-- \\debugChannel\\RHtmlSpanFormatter -->
<g id="node7" class="node"><title>\\debugChannel\\RHtmlSpanFormatter</title>
<polygon fill="none" stroke="black" points="525,-196 391,-196 391,-160 525,-160 525,-196"/>
<text text-anchor="middle" x="458" y="-175.1" font-family="Times Roman,serif" font-size="11.00">RHtmlSpanFormatter</text>
</g>
<!-- \\debugChannel\\RHtmlSpanFormatter&#45;&gt;\\debugChannel\\RFormatter -->
<g id="edge6" class="edge"><title>\\debugChannel\\RHtmlSpanFormatter&#45;&gt;\\debugChannel\\RFormatter</title>
<path fill="none" stroke="black" d="M390.899,-178C336.085,-178 259.779,-178 209.901,-178"/>
<polygon fill="none" stroke="black" points="209.676,-174.5 199.676,-178 209.676,-181.5 209.676,-174.5"/>
</g>
<!-- \\debugChannel\\DebugChannelBuilder -->
<g id="node8" class="node"><title>\\debugChannel\\DebugChannelBuilder</title>
<polygon fill="none" stroke="black" points="524,-142 392,-142 392,-106 524,-106 524,-142"/>
<text text-anchor="middle" x="458" y="-121.1" font-family="Times Roman,serif" font-size="11.00">DebugChannelBuilder</text>
</g>
<!-- \\CachedDebugChannel -->
<g id="node9" class="node"><title>\\CachedDebugChannel</title>
<polygon fill="none" stroke="black" points="526,-88 390,-88 390,-52 526,-52 526,-88"/>
<text text-anchor="middle" x="458" y="-67.1" font-family="Times Roman,serif" font-size="11.00">CachedDebugChannel</text>
</g>
<!-- \\debugchannel\\DebugChannel -->
<g id="node13" class="node"><title>\\debugchannel\\DebugChannel</title>
<ellipse fill="none" stroke="black" cx="159" cy="-18" rx="157.892" ry="18.3848"/>
<text text-anchor="middle" x="159" y="-14.4" font-family="Times Roman,serif" font-size="14.00" fill="gray">\debugchannel\DebugChannel</text>
</g>
<!-- \\CachedDebugChannel&#45;&gt;\\debugchannel\\DebugChannel -->
<g id="edge8" class="edge"><title>\\CachedDebugChannel&#45;&gt;\\debugchannel\\DebugChannel</title>
<path fill="none" stroke="black" d="M389.778,-58.1353C350.123,-51.2387 299.505,-42.4357 255.785,-34.8322"/>
<polygon fill="none" stroke="black" points="256.155,-31.344 245.703,-33.0787 254.955,-38.2405 256.155,-31.344"/>
</g>
</g>
</svg>
