<?xml version="1.0" encoding="UTF-8" standalone="no"?>
<!DOCTYPE svg PUBLIC "-//W3C//DTD SVG 1.1//EN"
 "http://www.w3.org/Graphics/SVG/1.1/DTD/svg11.dtd">
<!-- Generated by graphviz version 2.26.3 (20100126.1600)
 -->
<!-- Title: G Pages: 1 -->
<svg width="354pt" height="398pt"
 viewBox="0.00 0.00 354.00 398.00" xmlns="http://www.w3.org/2000/svg" xmlns:xlink="http://www.w3.org/1999/xlink">
<g id="graph1" class="graph" transform="scale(1 1) rotate(0) translate(4 394)">
<title>G</title>
<polygon fill="white" stroke="white" points="-4,5 -4,-394 351,-394 351,5 -4,5"/>
<g id="graph2" class="cluster"><title>cluster_Global</title>
<polyline fill="none" stroke="gray" points="20,-8 326,-8 "/>
<path fill="none" stroke="gray" d="M326,-8C332,-8 338,-14 338,-20"/>
<polyline fill="none" stroke="gray" points="338,-20 338,-370 "/>
<path fill="none" stroke="gray" d="M338,-370C338,-376 332,-382 326,-382"/>
<polyline fill="none" stroke="gray" points="326,-382 20,-382 "/>
<path fill="none" stroke="gray" d="M20,-382C14,-382 8,-376 8,-370"/>
<polyline fill="none" stroke="gray" points="8,-370 8,-20 "/>
<path fill="none" stroke="gray" d="M8,-20C8,-14 14,-8 20,-8"/>
<text text-anchor="middle" x="173" y="-368.1" font-family="Times Roman,serif" font-size="11.00" fill="gray">\</text>
</g>
<g id="graph3" class="cluster"><title>cluster_\debugchannel</title>
<polyline fill="none" stroke="gray" points="174,-170 318,-170 "/>
<path fill="none" stroke="gray" d="M318,-170C324,-170 330,-176 330,-182"/>
<polyline fill="none" stroke="gray" points="330,-182 330,-340 "/>
<path fill="none" stroke="gray" d="M330,-340C330,-346 324,-352 318,-352"/>
<polyline fill="none" stroke="gray" points="318,-352 174,-352 "/>
<path fill="none" stroke="gray" d="M174,-352C168,-352 162,-346 162,-340"/>
<polyline fill="none" stroke="gray" points="162,-340 162,-182 "/>
<path fill="none" stroke="gray" d="M162,-182C162,-176 168,-170 174,-170"/>
<text text-anchor="middle" x="246" y="-338.1" font-family="Times Roman,serif" font-size="11.00" fill="gray">debugchannel</text>
</g>
<!-- \\debugchannel\\D -->
<g id="node3" class="node"><title>\\debugchannel\\D</title>
<polygon fill="none" stroke="black" points="273,-322 219,-322 219,-286 273,-286 273,-322"/>
<text text-anchor="middle" x="246" y="-301.1" font-family="Times Roman,serif" font-size="11.00">D</text>
</g>
<!-- \\debugchannel\\LanguageAgnosticParser -->
<g id="node4" class="node"><title>\\debugchannel\\LanguageAgnosticParser</title>
<polygon fill="none" stroke="black" points="321,-268 171,-268 171,-232 321,-232 321,-268"/>
<text text-anchor="middle" x="246" y="-247.1" font-family="Times Roman,serif" font-size="11.00">LanguageAgnosticParser</text>
</g>
<!-- \\debugchannel\\RHtmlSpanFormatter -->
<g id="node5" class="node"><title>\\debugchannel\\RHtmlSpanFormatter</title>
<polygon fill="none" stroke="black" points="313,-214 179,-214 179,-178 313,-178 313,-214"/>
<text text-anchor="middle" x="246" y="-193.1" font-family="Times Roman,serif" font-size="11.00">RHtmlSpanFormatter</text>
</g>
<!-- \\RFormatter -->
<g id="node7" class="node"><title>\\RFormatter</title>
<polygon fill="none" stroke="black" points="97,-106 17,-106 17,-70 97,-70 97,-106"/>
<text text-anchor="start" x="27" y="-93.4333" font-family="Times Roman,serif" font-size="11.00">«abstract»</text>
<text text-anchor="start" x="25" y="-80.2333" font-family="Times Roman,serif" font-size="11.00">RFormatter</text>
</g>
<!-- \\debugchannel\\RHtmlSpanFormatter&#45;&gt;\\RFormatter -->
<g id="edge4" class="edge"><title>\\debugchannel\\RHtmlSpanFormatter&#45;&gt;\\RFormatter</title>
<path fill="none" stroke="black" d="M178.987,-181.29C173.118,-179.156 167.373,-176.737 162,-174 131.282,-158.35 101.379,-132.498 81.3935,-113.217"/>
<polygon fill="none" stroke="black" points="83.8236,-110.698 74.2383,-106.184 78.9167,-115.69 83.8236,-110.698"/>
</g>
<!-- \\ref -->
<g id="node6" class="node"><title>\\ref</title>
<polygon fill="none" stroke="black" points="273,-160 219,-160 219,-124 273,-124 273,-160"/>
<text text-anchor="middle" x="246" y="-139.1" font-family="Times Roman,serif" font-size="11.00">ref</text>
</g>
<!-- \\RHtmlFormatter -->
<g id="node8" class="node"><title>\\RHtmlFormatter</title>
<polygon fill="none" stroke="black" points="299,-106 193,-106 193,-70 299,-70 299,-106"/>
<text text-anchor="middle" x="246" y="-85.1" font-family="Times Roman,serif" font-size="11.00">RHtmlFormatter</text>
</g>
<!-- \\RHtmlFormatter&#45;&gt;\\RFormatter -->
<g id="edge6" class="edge"><title>\\RHtmlFormatter&#45;&gt;\\RFormatter</title>
<path fill="none" stroke="black" d="M192.346,-88C165.755,-88 133.82,-88 107.651,-88"/>
<polygon fill="none" stroke="black" points="107.56,-84.5001 97.5597,-88 107.56,-91.5001 107.56,-84.5001"/>
</g>
<!-- \\RTextFormatter -->
<g id="node9" class="node"><title>\\RTextFormatter</title>
<polygon fill="none" stroke="black" points="298,-52 194,-52 194,-16 298,-16 298,-52"/>
<text text-anchor="middle" x="246" y="-31.1" font-family="Times Roman,serif" font-size="11.00">RTextFormatter</text>
</g>
<!-- \\RTextFormatter&#45;&gt;\\RFormatter -->
<g id="edge8" class="edge"><title>\\RTextFormatter&#45;&gt;\\RFormatter</title>
<path fill="none" stroke="black" d="M193.855,-48.8987C166.92,-56.5942 134.198,-65.9434 107.505,-73.57"/>
<polygon fill="none" stroke="black" points="106.248,-70.289 97.5942,-76.4017 108.171,-77.0197 106.248,-70.289"/>
</g>
</g>
</svg>
