<?xml version="1.0" encoding="UTF-8" standalone="no"?>
<!DOCTYPE svg PUBLIC "-//W3C//DTD SVG 1.1//EN"
 "http://www.w3.org/Graphics/SVG/1.1/DTD/svg11.dtd">
<!-- Generated by graphviz version 2.26.3 (20100126.1600)
 -->
<!-- Title: G Pages: 1 -->
<svg width="358pt" height="244pt"
 viewBox="0.00 0.00 358.00 244.00" xmlns="http://www.w3.org/2000/svg" xmlns:xlink="http://www.w3.org/1999/xlink">
<g id="graph1" class="graph" transform="scale(1 1) rotate(0) translate(4 240)">
<title>G</title>
<polygon fill="white" stroke="white" points="-4,5 -4,-240 355,-240 355,5 -4,5"/>
<g id="graph2" class="cluster"><title>cluster_Global</title>
<polyline fill="none" stroke="gray" points="20,-8 330,-8 "/>
<path fill="none" stroke="gray" d="M330,-8C336,-8 342,-14 342,-20"/>
<polyline fill="none" stroke="gray" points="342,-20 342,-216 "/>
<path fill="none" stroke="gray" d="M342,-216C342,-222 336,-228 330,-228"/>
<polyline fill="none" stroke="gray" points="330,-228 20,-228 "/>
<path fill="none" stroke="gray" d="M20,-228C14,-228 8,-222 8,-216"/>
<polyline fill="none" stroke="gray" points="8,-216 8,-20 "/>
<path fill="none" stroke="gray" d="M8,-20C8,-14 14,-8 20,-8"/>
<text text-anchor="middle" x="175" y="-214.1" font-family="Times Roman,serif" font-size="11.00" fill="gray">\</text>
</g>
<g id="graph3" class="cluster"><title>cluster_\debugChannel</title>
<polyline fill="none" stroke="gray" points="28,-16 322,-16 "/>
<path fill="none" stroke="gray" d="M322,-16C328,-16 334,-22 334,-28"/>
<polyline fill="none" stroke="gray" points="334,-28 334,-186 "/>
<path fill="none" stroke="gray" d="M334,-186C334,-192 328,-198 322,-198"/>
<polyline fill="none" stroke="gray" points="322,-198 28,-198 "/>
<path fill="none" stroke="gray" d="M28,-198C22,-198 16,-192 16,-186"/>
<polyline fill="none" stroke="gray" points="16,-186 16,-28 "/>
<path fill="none" stroke="gray" d="M16,-28C16,-22 22,-16 28,-16"/>
<text text-anchor="middle" x="175" y="-184.1" font-family="Times Roman,serif" font-size="11.00" fill="gray">debugChannel</text>
</g>
<!-- \\debugChannel\\DebugChannel -->
<g id="node3" class="node"><title>\\debugChannel\\DebugChannel</title>
<polygon fill="none" stroke="black" points="119,-168 25,-168 25,-132 119,-132 119,-168"/>
<text text-anchor="middle" x="72" y="-147.1" font-family="Times Roman,serif" font-size="11.00">DebugChannel</text>
</g>
<!-- \\debugChannel\\D -->
<g id="node4" class="node"><title>\\debugChannel\\D</title>
<polygon fill="none" stroke="black" points="286,-168 232,-168 232,-132 286,-132 286,-168"/>
<text text-anchor="middle" x="259" y="-147.1" font-family="Times Roman,serif" font-size="11.00">D</text>
</g>
<!-- \\debugChannel\\D&#45;&gt;\\debugChannel\\DebugChannel -->
<g id="edge4" class="edge"><title>\\debugChannel\\D&#45;&gt;\\debugChannel\\DebugChannel</title>
<path fill="none" stroke="black" d="M231.809,-150C205.187,-150 163.788,-150 129.797,-150"/>
<polygon fill="none" stroke="black" points="129.511,-146.5 119.511,-150 129.511,-153.5 129.511,-146.5"/>
</g>
<!-- \\debugChannel\\Ref -->
<g id="node5" class="node"><title>\\debugChannel\\Ref</title>
<polygon fill="none" stroke="black" points="286,-114 232,-114 232,-78 286,-78 286,-114"/>
<text text-anchor="middle" x="259" y="-93.1" font-family="Times Roman,serif" font-size="11.00">Ref</text>
</g>
<!-- \\debugChannel\\RFormatter -->
<g id="node6" class="node"><title>\\debugChannel\\RFormatter</title>
<polygon fill="none" stroke="black" points="112,-60 32,-60 32,-24 112,-24 112,-60"/>
<text text-anchor="start" x="42" y="-47.4333" font-family="Times Roman,serif" font-size="11.00">«abstract»</text>
<text text-anchor="start" x="40" y="-34.2333" font-family="Times Roman,serif" font-size="11.00">RFormatter</text>
</g>
<!-- \\debugChannel\\RHtmlSpanFormatter -->
<g id="node7" class="node"><title>\\debugChannel\\RHtmlSpanFormatter</title>
<polygon fill="none" stroke="black" points="326,-60 192,-60 192,-24 326,-24 326,-60"/>
<text text-anchor="middle" x="259" y="-39.1" font-family="Times Roman,serif" font-size="11.00">RHtmlSpanFormatter</text>
</g>
<!-- \\debugChannel\\RHtmlSpanFormatter&#45;&gt;\\debugChannel\\RFormatter -->
<g id="edge6" class="edge"><title>\\debugChannel\\RHtmlSpanFormatter&#45;&gt;\\debugChannel\\RFormatter</title>
<path fill="none" stroke="black" d="M191.753,-42C168.987,-42 143.961,-42 122.7,-42"/>
<polygon fill="none" stroke="black" points="122.592,-38.5001 112.592,-42 122.592,-45.5001 122.592,-38.5001"/>
</g>
</g>
</svg>
