<?xml version="1.0" encoding="UTF-8" standalone="no"?>
<!DOCTYPE svg PUBLIC "-//W3C//DTD SVG 1.1//EN"
 "http://www.w3.org/Graphics/SVG/1.1/DTD/svg11.dtd">
<!-- Generated by graphviz version 2.26.3 (20100126.1600)
 -->
<!-- Title: G Pages: 1 -->
<svg width="278pt" height="136pt"
 viewBox="0.00 0.00 278.00 136.00" xmlns="http://www.w3.org/2000/svg" xmlns:xlink="http://www.w3.org/1999/xlink">
<g id="graph1" class="graph" transform="scale(1 1) rotate(0) translate(4 132)">
<title>G</title>
<polygon fill="white" stroke="white" points="-4,5 -4,-132 275,-132 275,5 -4,5"/>
<g id="graph2" class="cluster"><title>cluster_Global</title>
<polyline fill="none" stroke="gray" points="20,-8 250,-8 "/>
<path fill="none" stroke="gray" d="M250,-8C256,-8 262,-14 262,-20"/>
<polyline fill="none" stroke="gray" points="262,-20 262,-108 "/>
<path fill="none" stroke="gray" d="M262,-108C262,-114 256,-120 250,-120"/>
<polyline fill="none" stroke="gray" points="250,-120 20,-120 "/>
<path fill="none" stroke="gray" d="M20,-120C14,-120 8,-114 8,-108"/>
<polyline fill="none" stroke="gray" points="8,-108 8,-20 "/>
<path fill="none" stroke="gray" d="M8,-20C8,-14 14,-8 20,-8"/>
<text text-anchor="middle" x="135" y="-106.1" font-family="Times Roman,serif" font-size="11.00" fill="gray">\</text>
</g>
<g id="graph3" class="cluster"><title>cluster_\debugChannel</title>
<polyline fill="none" stroke="gray" points="28,-16 242,-16 "/>
<path fill="none" stroke="gray" d="M242,-16C248,-16 254,-22 254,-28"/>
<polyline fill="none" stroke="gray" points="254,-28 254,-78 "/>
<path fill="none" stroke="gray" d="M254,-78C254,-84 248,-90 242,-90"/>
<polyline fill="none" stroke="gray" points="242,-90 28,-90 "/>
<path fill="none" stroke="gray" d="M28,-90C22,-90 16,-84 16,-78"/>
<polyline fill="none" stroke="gray" points="16,-78 16,-28 "/>
<path fill="none" stroke="gray" d="M16,-28C16,-22 22,-16 28,-16"/>
<text text-anchor="middle" x="135" y="-76.1" font-family="Times Roman,serif" font-size="11.00" fill="gray">debugChannel</text>
</g>
<!-- \\debugChannel\\DebugChannel -->
<g id="node3" class="node"><title>\\debugChannel\\DebugChannel</title>
<polygon fill="none" stroke="black" points="119,-60 25,-60 25,-24 119,-24 119,-60"/>
<text text-anchor="middle" x="72" y="-39.1" font-family="Times Roman,serif" font-size="11.00">DebugChannel</text>
</g>
<!-- \\debugChannel\\D -->
<g id="node4" class="node"><title>\\debugChannel\\D</title>
<polygon fill="none" stroke="black" points="246,-60 192,-60 192,-24 246,-24 246,-60"/>
<text text-anchor="middle" x="219" y="-39.1" font-family="Times Roman,serif" font-size="11.00">D</text>
</g>
<!-- \\debugChannel\\D&#45;&gt;\\debugChannel\\DebugChannel -->
<g id="edge4" class="edge"><title>\\debugChannel\\D&#45;&gt;\\debugChannel\\DebugChannel</title>
<path fill="none" stroke="black" d="M191.695,-42C174.356,-42 151.249,-42 129.964,-42"/>
<polygon fill="none" stroke="black" points="129.694,-38.5001 119.694,-42 129.694,-45.5001 129.694,-38.5001"/>
</g>
</g>
</svg>
